<?xml version="1.0" encoding="utf-8"?>
<!-- Generator: Adobe Illustrator 16.0.0, SVG Export Plug-In . SVG Version: 6.00 Build 0)  -->
<!DOCTYPE svg PUBLIC "-//W3C//DTD SVG 1.1//EN" "http://www.w3.org/Graphics/SVG/1.1/DTD/svg11.dtd">
<svg version="1.1" id="Layer_1" xmlns="http://www.w3.org/2000/svg" xmlns:xlink="http://www.w3.org/1999/xlink" x="0px" y="0px"
	 width="512px" height="512px" viewBox="0 0 512 512" enable-background="new 0 0 512 512" xml:space="preserve">
<g>
	<polygon points="368,400 304,400 304,432 272,464 400,464 368,432 	"/>
	<path d="M96,48H32C14.313,48,0,62.344,0,80v352c0,17.688,14.313,32,32,32h64c17.688,0,32-14.313,32-32V80
		C128,62.344,113.688,48,96,48z M64,368H32v-32h32V368z M96,208H32v-32h64V208z M96,144H32v-32h64V144z"/>
	<path d="M480,112H192c-17.688,0-32,14.344-32,32v192c0,17.688,14.313,32,32,32h288c17.688,0,32-14.313,32-32V144
		C512,126.344,497.688,112,480,112z M352,352h-32v-32h32V352z M480,304H192V144h288V304z"/>
</g>
</svg>
